<svg width="1080" height="1920" xmlns="http://www.w3.org/2000/svg">
  <rect width="1080" height="1920" fill="#F5F5F5"/>
  <text x="540" y="200" font-family="Arial, sans-serif" font-size="48" font-weight="bold" fill="#333" text-anchor="middle">Level 1</text>
  <g transform="translate(140, 300)">
    <rect x="0" y="0" width="180" height="180" rx="20" fill="#0052FF" opacity="0.8"/><rect x="210" y="0" width="180" height="180" rx="20" fill="#0052FF" opacity="0.8"/><rect x="420" y="0" width="180" height="180" rx="20" fill="#0052FF" opacity="0.8"/><rect x="630" y="0" width="180" height="180" rx="20" fill="#0052FF" opacity="0.8"/><rect x="0" y="210" width="180" height="180" rx="20" fill="#0052FF" opacity="0.8"/><rect x="210" y="210" width="180" height="180" rx="20" fill="#0052FF" opacity="0.8"/><rect x="420" y="210" width="180" height="180" rx="20" fill="#0052FF" opacity="0.8"/><rect x="630" y="210" width="180" height="180" rx="20" fill="#0052FF" opacity="0.8"/><rect x="0" y="420" width="180" height="180" rx="20" fill="#0052FF" opacity="0.8"/><rect x="210" y="420" width="180" height="180" rx="20" fill="#0052FF" opacity="0.8"/><rect x="420" y="420" width="180" height="180" rx="20" fill="#0052FF" opacity="0.8"/><rect x="630" y="420" width="180" height="180" rx="20" fill="#0052FF" opacity="0.8"/><rect x="0" y="630" width="180" height="180" rx="20" fill="#0052FF" opacity="0.8"/><rect x="210" y="630" width="180" height="180" rx="20" fill="#0052FF" opacity="0.8"/><rect x="420" y="630" width="180" height="180" rx="20" fill="#0052FF" opacity="0.8"/><rect x="630" y="630" width="180" height="180" rx="20" fill="#0052FF" opacity="0.8"/>
  </g>
  <text x="540" y="1700" font-family="Arial, sans-serif" font-size="36" fill="#666" text-anchor="middle">Match the pairs!</text>
</svg>